<svg xmlns="http://www.w3.org/2000/svg" viewBox="0 0 64 64"><style>.e{stroke:#6a58d6}.n{fill:#6a58d6}.lit{fill:#e0a800}@media (prefers-color-scheme:dark){.e{stroke:#8b7cf6}.n{fill:#8b7cf6}.lit{fill:#f5dc5c}}</style><g transform="translate(32 32) scale(1.15) translate(-32 -26)"><g class="e" stroke-width="3.6" stroke-opacity=".75" stroke-linecap="round"><line x1="14" y1="30" x2="20" y2="14"/><line x1="20" y1="14" x2="36" y2="10"/><line x1="36" y1="10" x2="50" y2="22"/><line x1="50" y1="22" x2="47" y2="39"/><line x1="47" y1="39" x2="28" y2="42"/><line x1="28" y1="42" x2="14" y2="30"/><line x1="34" y1="27" x2="14" y2="30"/><line x1="34" y1="27" x2="20" y2="14"/><line x1="34" y1="27" x2="36" y2="10"/><line x1="34" y1="27" x2="50" y2="22"/><line x1="34" y1="27" x2="47" y2="39"/><line x1="34" y1="27" x2="28" y2="42"/></g><g class="n"><circle cx="14" cy="30" r="5"/><circle cx="20" cy="14" r="5"/><circle cx="36" cy="10" r="5"/><circle cx="50" cy="22" r="5"/><circle cx="47" cy="39" r="5"/><circle cx="28" cy="42" r="5"/><circle cx="34" cy="27" r="11" fill-opacity=".25"/></g><circle class="lit" cx="34" cy="27" r="7.5"/></g></svg>
